<?xml version="1.0" encoding="utf-8" standalone="no"?>
<!DOCTYPE svg PUBLIC "-//W3C//DTD SVG 1.1//EN"
  "http://www.w3.org/Graphics/SVG/1.1/DTD/svg11.dtd">
<svg xmlns:xlink="http://www.w3.org/1999/xlink" width="1008pt" height="590.4pt" viewBox="0 0 1008 590.4" xmlns="http://www.w3.org/2000/svg" version="1.1">
 <metadata>
  <rdf:RDF xmlns:dc="http://purl.org/dc/elements/1.1/" xmlns:cc="http://creativecommons.org/ns#" xmlns:rdf="http://www.w3.org/1999/02/22-rdf-syntax-ns#">
   <cc:Work>
    <dc:type rdf:resource="http://purl.org/dc/dcmitype/StillImage"/>
    <dc:date>2026-04-17T00:54:09.019202</dc:date>
    <dc:format>image/svg+xml</dc:format>
    <dc:creator>
     <cc:Agent>
      <dc:title>Matplotlib v3.10.8, https://matplotlib.org/</dc:title>
     </cc:Agent>
    </dc:creator>
   </cc:Work>
  </rdf:RDF>
 </metadata>
 <defs>
  <style type="text/css">*{stroke-linejoin: round; stroke-linecap: butt}</style>
 </defs>
 <g id="figure_1">
  <g id="patch_1">
   <path d="M 0 590.4 
L 1008 590.4 
L 1008 0 
L 0 0 
z
" style="fill: #ffffff"/>
  </g>
  <g id="axes_1">
   <g id="patch_2">
    <path d="M 110.88 519.552 
L 735.84 519.552 
L 735.84 59.04 
L 110.88 59.04 
z
" style="fill: #ffffff"/>
   </g>
   <g id="matplotlib.axis_1">
    <g id="xtick_1">
     <g id="line2d_1">
      <path d="M 131.887059 519.552 
L 131.887059 59.04 
" clip-path="url(#pa7ab092f9b)" style="fill: none; stroke: #d9d9d9; stroke-opacity: 0.7; stroke-width: 0.8; stroke-linecap: square"/>
     </g>
     <g id="line2d_2">
      <defs>
       <path id="mf40d2f584d" d="M 0 0 
L 0 3.5 
" style="stroke: #000000; stroke-width: 0.8"/>
      </defs>
      <g>
       <use xlink:href="#mf40d2f584d" x="131.887059" y="519.552" style="stroke: #000000; stroke-width: 0.8"/>
      </g>
     </g>
     <g id="text_1">
      <!-- 0 -->
      <g transform="translate(128.705809 534.150437) scale(0.1 -0.1)">
       <defs>
        <path id="DejaVuSans-30" d="M 2034 4250 
Q 1547 4250 1301 3770 
Q 1056 3291 1056 2328 
Q 1056 1369 1301 889 
Q 1547 409 2034 409 
Q 2525 409 2770 889 
Q 3016 1369 3016 2328 
Q 3016 3291 2770 3770 
Q 2525 4250 2034 4250 
z
M 2034 4750 
Q 2819 4750 3233 4129 
Q 3647 3509 3647 2328 
Q 3647 1150 3233 529 
Q 2819 -91 2034 -91 
Q 1250 -91 836 529 
Q 422 1150 422 2328 
Q 422 3509 836 4129 
Q 1250 4750 2034 4750 
z
" transform="scale(0.015625)"/>
       </defs>
       <use xlink:href="#DejaVuSans-30"/>
      </g>
     </g>
    </g>
    <g id="xtick_2">
     <g id="line2d_3">
      <path d="M 246.429364 519.552 
L 246.429364 59.04 
" clip-path="url(#pa7ab092f9b)" style="fill: none; stroke: #d9d9d9; stroke-opacity: 0.7; stroke-width: 0.8; stroke-linecap: square"/>
     </g>
     <g id="line2d_4">
      <g>
       <use xlink:href="#mf40d2f584d" x="246.429364" y="519.552" style="stroke: #000000; stroke-width: 0.8"/>
      </g>
     </g>
     <g id="text_2">
      <!-- 200 -->
      <g transform="translate(236.885614 534.150437) scale(0.1 -0.1)">
       <defs>
        <path id="DejaVuSans-32" d="M 1228 531 
L 3431 531 
L 3431 0 
L 469 0 
L 469 531 
Q 828 903 1448 1529 
Q 2069 2156 2228 2338 
Q 2531 2678 2651 2914 
Q 2772 3150 2772 3378 
Q 2772 3750 2511 3984 
Q 2250 4219 1831 4219 
Q 1534 4219 1204 4116 
Q 875 4013 500 3803 
L 500 4441 
Q 881 4594 1212 4672 
Q 1544 4750 1819 4750 
Q 2544 4750 2975 4387 
Q 3406 4025 3406 3419 
Q 3406 3131 3298 2873 
Q 3191 2616 2906 2266 
Q 2828 2175 2409 1742 
Q 1991 1309 1228 531 
z
" transform="scale(0.015625)"/>
       </defs>
       <use xlink:href="#DejaVuSans-32"/>
       <use xlink:href="#DejaVuSans-30" transform="translate(63.623047 0)"/>
       <use xlink:href="#DejaVuSans-30" transform="translate(127.246094 0)"/>
      </g>
     </g>
    </g>
    <g id="xtick_3">
     <g id="line2d_5">
      <path d="M 360.97167 519.552 
L 360.97167 59.04 
" clip-path="url(#pa7ab092f9b)" style="fill: none; stroke: #d9d9d9; stroke-opacity: 0.7; stroke-width: 0.8; stroke-linecap: square"/>
     </g>
     <g id="line2d_6">
      <g>
       <use xlink:href="#mf40d2f584d" x="360.97167" y="519.552" style="stroke: #000000; stroke-width: 0.8"/>
      </g>
     </g>
     <g id="text_3">
      <!-- 400 -->
      <g transform="translate(351.42792 534.150437) scale(0.1 -0.1)">
       <defs>
        <path id="DejaVuSans-34" d="M 2419 4116 
L 825 1625 
L 2419 1625 
L 2419 4116 
z
M 2253 4666 
L 3047 4666 
L 3047 1625 
L 3713 1625 
L 3713 1100 
L 3047 1100 
L 3047 0 
L 2419 0 
L 2419 1100 
L 313 1100 
L 313 1709 
L 2253 4666 
z
" transform="scale(0.015625)"/>
       </defs>
       <use xlink:href="#DejaVuSans-34"/>
       <use xlink:href="#DejaVuSans-30" transform="translate(63.623047 0)"/>
       <use xlink:href="#DejaVuSans-30" transform="translate(127.246094 0)"/>
      </g>
     </g>
    </g>
    <g id="xtick_4">
     <g id="line2d_7">
      <path d="M 475.513975 519.552 
L 475.513975 59.04 
" clip-path="url(#pa7ab092f9b)" style="fill: none; stroke: #d9d9d9; stroke-opacity: 0.7; stroke-width: 0.8; stroke-linecap: square"/>
     </g>
     <g id="line2d_8">
      <g>
       <use xlink:href="#mf40d2f584d" x="475.513975" y="519.552" style="stroke: #000000; stroke-width: 0.8"/>
      </g>
     </g>
     <g id="text_4">
      <!-- 600 -->
      <g transform="translate(465.970225 534.150437) scale(0.1 -0.1)">
       <defs>
        <path id="DejaVuSans-36" d="M 2113 2584 
Q 1688 2584 1439 2293 
Q 1191 2003 1191 1497 
Q 1191 994 1439 701 
Q 1688 409 2113 409 
Q 2538 409 2786 701 
Q 3034 994 3034 1497 
Q 3034 2003 2786 2293 
Q 2538 2584 2113 2584 
z
M 3366 4563 
L 3366 3988 
Q 3128 4100 2886 4159 
Q 2644 4219 2406 4219 
Q 1781 4219 1451 3797 
Q 1122 3375 1075 2522 
Q 1259 2794 1537 2939 
Q 1816 3084 2150 3084 
Q 2853 3084 3261 2657 
Q 3669 2231 3669 1497 
Q 3669 778 3244 343 
Q 2819 -91 2113 -91 
Q 1303 -91 875 529 
Q 447 1150 447 2328 
Q 447 3434 972 4092 
Q 1497 4750 2381 4750 
Q 2619 4750 2861 4703 
Q 3103 4656 3366 4563 
z
" transform="scale(0.015625)"/>
       </defs>
       <use xlink:href="#DejaVuSans-36"/>
       <use xlink:href="#DejaVuSans-30" transform="translate(63.623047 0)"/>
       <use xlink:href="#DejaVuSans-30" transform="translate(127.246094 0)"/>
      </g>
     </g>
    </g>
    <g id="xtick_5">
     <g id="line2d_9">
      <path d="M 590.056281 519.552 
L 590.056281 59.04 
" clip-path="url(#pa7ab092f9b)" style="fill: none; stroke: #d9d9d9; stroke-opacity: 0.7; stroke-width: 0.8; stroke-linecap: square"/>
     </g>
     <g id="line2d_10">
      <g>
       <use xlink:href="#mf40d2f584d" x="590.056281" y="519.552" style="stroke: #000000; stroke-width: 0.8"/>
      </g>
     </g>
     <g id="text_5">
      <!-- 800 -->
      <g transform="translate(580.512531 534.150437) scale(0.1 -0.1)">
       <defs>
        <path id="DejaVuSans-38" d="M 2034 2216 
Q 1584 2216 1326 1975 
Q 1069 1734 1069 1313 
Q 1069 891 1326 650 
Q 1584 409 2034 409 
Q 2484 409 2743 651 
Q 3003 894 3003 1313 
Q 3003 1734 2745 1975 
Q 2488 2216 2034 2216 
z
M 1403 2484 
Q 997 2584 770 2862 
Q 544 3141 544 3541 
Q 544 4100 942 4425 
Q 1341 4750 2034 4750 
Q 2731 4750 3128 4425 
Q 3525 4100 3525 3541 
Q 3525 3141 3298 2862 
Q 3072 2584 2669 2484 
Q 3125 2378 3379 2068 
Q 3634 1759 3634 1313 
Q 3634 634 3220 271 
Q 2806 -91 2034 -91 
Q 1263 -91 848 271 
Q 434 634 434 1313 
Q 434 1759 690 2068 
Q 947 2378 1403 2484 
z
M 1172 3481 
Q 1172 3119 1398 2916 
Q 1625 2713 2034 2713 
Q 2441 2713 2670 2916 
Q 2900 3119 2900 3481 
Q 2900 3844 2670 4047 
Q 2441 4250 2034 4250 
Q 1625 4250 1398 4047 
Q 1172 3844 1172 3481 
z
" transform="scale(0.015625)"/>
       </defs>
       <use xlink:href="#DejaVuSans-38"/>
       <use xlink:href="#DejaVuSans-30" transform="translate(63.623047 0)"/>
       <use xlink:href="#DejaVuSans-30" transform="translate(127.246094 0)"/>
      </g>
     </g>
    </g>
    <g id="xtick_6">
     <g id="line2d_11">
      <path d="M 704.598586 519.552 
L 704.598586 59.04 
" clip-path="url(#pa7ab092f9b)" style="fill: none; stroke: #d9d9d9; stroke-opacity: 0.7; stroke-width: 0.8; stroke-linecap: square"/>
     </g>
     <g id="line2d_12">
      <g>
       <use xlink:href="#mf40d2f584d" x="704.598586" y="519.552" style="stroke: #000000; stroke-width: 0.8"/>
      </g>
     </g>
     <g id="text_6">
      <!-- 1000 -->
      <g transform="translate(691.873586 534.150437) scale(0.1 -0.1)">
       <defs>
        <path id="DejaVuSans-31" d="M 794 531 
L 1825 531 
L 1825 4091 
L 703 3866 
L 703 4441 
L 1819 4666 
L 2450 4666 
L 2450 531 
L 3481 531 
L 3481 0 
L 794 0 
L 794 531 
z
" transform="scale(0.015625)"/>
       </defs>
       <use xlink:href="#DejaVuSans-31"/>
       <use xlink:href="#DejaVuSans-30" transform="translate(63.623047 0)"/>
       <use xlink:href="#DejaVuSans-30" transform="translate(127.246094 0)"/>
       <use xlink:href="#DejaVuSans-30" transform="translate(190.869141 0)"/>
      </g>
     </g>
    </g>
    <g id="text_7">
     <!-- Agent loop iteration (cumulative across all agent sessions) -->
     <g transform="translate(232.457031 550.108094) scale(0.13 -0.13)">
      <defs>
       <path id="DejaVuSans-41" d="M 2188 4044 
L 1331 1722 
L 3047 1722 
L 2188 4044 
z
M 1831 4666 
L 2547 4666 
L 4325 0 
L 3669 0 
L 3244 1197 
L 1141 1197 
L 716 0 
L 50 0 
L 1831 4666 
z
" transform="scale(0.015625)"/>
       <path id="DejaVuSans-67" d="M 2906 1791 
Q 2906 2416 2648 2759 
Q 2391 3103 1925 3103 
Q 1463 3103 1205 2759 
Q 947 2416 947 1791 
Q 947 1169 1205 825 
Q 1463 481 1925 481 
Q 2391 481 2648 825 
Q 2906 1169 2906 1791 
z
M 3481 434 
Q 3481 -459 3084 -895 
Q 2688 -1331 1869 -1331 
Q 1566 -1331 1297 -1286 
Q 1028 -1241 775 -1147 
L 775 -588 
Q 1028 -725 1275 -790 
Q 1522 -856 1778 -856 
Q 2344 -856 2625 -561 
Q 2906 -266 2906 331 
L 2906 616 
Q 2728 306 2450 153 
Q 2172 0 1784 0 
Q 1141 0 747 490 
Q 353 981 353 1791 
Q 353 2603 747 3093 
Q 1141 3584 1784 3584 
Q 2172 3584 2450 3431 
Q 2728 3278 2906 2969 
L 2906 3500 
L 3481 3500 
L 3481 434 
z
" transform="scale(0.015625)"/>
       <path id="DejaVuSans-65" d="M 3597 1894 
L 3597 1613 
L 953 1613 
Q 991 1019 1311 708 
Q 1631 397 2203 397 
Q 2534 397 2845 478 
Q 3156 559 3463 722 
L 3463 178 
Q 3153 47 2828 -22 
Q 2503 -91 2169 -91 
Q 1331 -91 842 396 
Q 353 884 353 1716 
Q 353 2575 817 3079 
Q 1281 3584 2069 3584 
Q 2775 3584 3186 3129 
Q 3597 2675 3597 1894 
z
M 3022 2063 
Q 3016 2534 2758 2815 
Q 2500 3097 2075 3097 
Q 1594 3097 1305 2825 
Q 1016 2553 972 2059 
L 3022 2063 
z
" transform="scale(0.015625)"/>
       <path id="DejaVuSans-6e" d="M 3513 2113 
L 3513 0 
L 2938 0 
L 2938 2094 
Q 2938 2591 2744 2837 
Q 2550 3084 2163 3084 
Q 1697 3084 1428 2787 
Q 1159 2491 1159 1978 
L 1159 0 
L 581 0 
L 581 3500 
L 1159 3500 
L 1159 2956 
Q 1366 3272 1645 3428 
Q 1925 3584 2291 3584 
Q 2894 3584 3203 3211 
Q 3513 2838 3513 2113 
z
" transform="scale(0.015625)"/>
       <path id="DejaVuSans-74" d="M 1172 4494 
L 1172 3500 
L 2356 3500 
L 2356 3053 
L 1172 3053 
L 1172 1153 
Q 1172 725 1289 603 
Q 1406 481 1766 481 
L 2356 481 
L 2356 0 
L 1766 0 
Q 1100 0 847 248 
Q 594 497 594 1153 
L 594 3053 
L 172 3053 
L 172 3500 
L 594 3500 
L 594 4494 
L 1172 4494 
z
" transform="scale(0.015625)"/>
       <path id="DejaVuSans-20" transform="scale(0.015625)"/>
       <path id="DejaVuSans-6c" d="M 603 4863 
L 1178 4863 
L 1178 0 
L 603 0 
L 603 4863 
z
" transform="scale(0.015625)"/>
       <path id="DejaVuSans-6f" d="M 1959 3097 
Q 1497 3097 1228 2736 
Q 959 2375 959 1747 
Q 959 1119 1226 758 
Q 1494 397 1959 397 
Q 2419 397 2687 759 
Q 2956 1122 2956 1747 
Q 2956 2369 2687 2733 
Q 2419 3097 1959 3097 
z
M 1959 3584 
Q 2709 3584 3137 3096 
Q 3566 2609 3566 1747 
Q 3566 888 3137 398 
Q 2709 -91 1959 -91 
Q 1206 -91 779 398 
Q 353 888 353 1747 
Q 353 2609 779 3096 
Q 1206 3584 1959 3584 
z
" transform="scale(0.015625)"/>
       <path id="DejaVuSans-70" d="M 1159 525 
L 1159 -1331 
L 581 -1331 
L 581 3500 
L 1159 3500 
L 1159 2969 
Q 1341 3281 1617 3432 
Q 1894 3584 2278 3584 
Q 2916 3584 3314 3078 
Q 3713 2572 3713 1747 
Q 3713 922 3314 415 
Q 2916 -91 2278 -91 
Q 1894 -91 1617 61 
Q 1341 213 1159 525 
z
M 3116 1747 
Q 3116 2381 2855 2742 
Q 2594 3103 2138 3103 
Q 1681 3103 1420 2742 
Q 1159 2381 1159 1747 
Q 1159 1113 1420 752 
Q 1681 391 2138 391 
Q 2594 391 2855 752 
Q 3116 1113 3116 1747 
z
" transform="scale(0.015625)"/>
       <path id="DejaVuSans-69" d="M 603 3500 
L 1178 3500 
L 1178 0 
L 603 0 
L 603 3500 
z
M 603 4863 
L 1178 4863 
L 1178 4134 
L 603 4134 
L 603 4863 
z
" transform="scale(0.015625)"/>
       <path id="DejaVuSans-72" d="M 2631 2963 
Q 2534 3019 2420 3045 
Q 2306 3072 2169 3072 
Q 1681 3072 1420 2755 
Q 1159 2438 1159 1844 
L 1159 0 
L 581 0 
L 581 3500 
L 1159 3500 
L 1159 2956 
Q 1341 3275 1631 3429 
Q 1922 3584 2338 3584 
Q 2397 3584 2469 3576 
Q 2541 3569 2628 3553 
L 2631 2963 
z
" transform="scale(0.015625)"/>
       <path id="DejaVuSans-61" d="M 2194 1759 
Q 1497 1759 1228 1600 
Q 959 1441 959 1056 
Q 959 750 1161 570 
Q 1363 391 1709 391 
Q 2188 391 2477 730 
Q 2766 1069 2766 1631 
L 2766 1759 
L 2194 1759 
z
M 3341 1997 
L 3341 0 
L 2766 0 
L 2766 531 
Q 2569 213 2275 61 
Q 1981 -91 1556 -91 
Q 1019 -91 701 211 
Q 384 513 384 1019 
Q 384 1609 779 1909 
Q 1175 2209 1959 2209 
L 2766 2209 
L 2766 2266 
Q 2766 2663 2505 2880 
Q 2244 3097 1772 3097 
Q 1472 3097 1187 3025 
Q 903 2953 641 2809 
L 641 3341 
Q 956 3463 1253 3523 
Q 1550 3584 1831 3584 
Q 2591 3584 2966 3190 
Q 3341 2797 3341 1997 
z
" transform="scale(0.015625)"/>
       <path id="DejaVuSans-28" d="M 1984 4856 
Q 1566 4138 1362 3434 
Q 1159 2731 1159 2009 
Q 1159 1288 1364 580 
Q 1569 -128 1984 -844 
L 1484 -844 
Q 1016 -109 783 600 
Q 550 1309 550 2009 
Q 550 2706 781 3412 
Q 1013 4119 1484 4856 
L 1984 4856 
z
" transform="scale(0.015625)"/>
       <path id="DejaVuSans-63" d="M 3122 3366 
L 3122 2828 
Q 2878 2963 2633 3030 
Q 2388 3097 2138 3097 
Q 1578 3097 1268 2742 
Q 959 2388 959 1747 
Q 959 1106 1268 751 
Q 1578 397 2138 397 
Q 2388 397 2633 464 
Q 2878 531 3122 666 
L 3122 134 
Q 2881 22 2623 -34 
Q 2366 -91 2075 -91 
Q 1284 -91 818 406 
Q 353 903 353 1747 
Q 353 2603 823 3093 
Q 1294 3584 2113 3584 
Q 2378 3584 2631 3529 
Q 2884 3475 3122 3366 
z
" transform="scale(0.015625)"/>
       <path id="DejaVuSans-75" d="M 544 1381 
L 544 3500 
L 1119 3500 
L 1119 1403 
Q 1119 906 1312 657 
Q 1506 409 1894 409 
Q 2359 409 2629 706 
Q 2900 1003 2900 1516 
L 2900 3500 
L 3475 3500 
L 3475 0 
L 2900 0 
L 2900 538 
Q 2691 219 2414 64 
Q 2138 -91 1772 -91 
Q 1169 -91 856 284 
Q 544 659 544 1381 
z
M 1991 3584 
L 1991 3584 
z
" transform="scale(0.015625)"/>
       <path id="DejaVuSans-6d" d="M 3328 2828 
Q 3544 3216 3844 3400 
Q 4144 3584 4550 3584 
Q 5097 3584 5394 3201 
Q 5691 2819 5691 2113 
L 5691 0 
L 5113 0 
L 5113 2094 
Q 5113 2597 4934 2840 
Q 4756 3084 4391 3084 
Q 3944 3084 3684 2787 
Q 3425 2491 3425 1978 
L 3425 0 
L 2847 0 
L 2847 2094 
Q 2847 2600 2669 2842 
Q 2491 3084 2119 3084 
Q 1678 3084 1418 2786 
Q 1159 2488 1159 1978 
L 1159 0 
L 581 0 
L 581 3500 
L 1159 3500 
L 1159 2956 
Q 1356 3278 1631 3431 
Q 1906 3584 2284 3584 
Q 2666 3584 2933 3390 
Q 3200 3197 3328 2828 
z
" transform="scale(0.015625)"/>
       <path id="DejaVuSans-76" d="M 191 3500 
L 800 3500 
L 1894 563 
L 2988 3500 
L 3597 3500 
L 2284 0 
L 1503 0 
L 191 3500 
z
" transform="scale(0.015625)"/>
       <path id="DejaVuSans-73" d="M 2834 3397 
L 2834 2853 
Q 2591 2978 2328 3040 
Q 2066 3103 1784 3103 
Q 1356 3103 1142 2972 
Q 928 2841 928 2578 
Q 928 2378 1081 2264 
Q 1234 2150 1697 2047 
L 1894 2003 
Q 2506 1872 2764 1633 
Q 3022 1394 3022 966 
Q 3022 478 2636 193 
Q 2250 -91 1575 -91 
Q 1294 -91 989 -36 
Q 684 19 347 128 
L 347 722 
Q 666 556 975 473 
Q 1284 391 1588 391 
Q 1994 391 2212 530 
Q 2431 669 2431 922 
Q 2431 1156 2273 1281 
Q 2116 1406 1581 1522 
L 1381 1569 
Q 847 1681 609 1914 
Q 372 2147 372 2553 
Q 372 3047 722 3315 
Q 1072 3584 1716 3584 
Q 2034 3584 2315 3537 
Q 2597 3491 2834 3397 
z
" transform="scale(0.015625)"/>
       <path id="DejaVuSans-29" d="M 513 4856 
L 1013 4856 
Q 1481 4119 1714 3412 
Q 1947 2706 1947 2009 
Q 1947 1309 1714 600 
Q 1481 -109 1013 -844 
L 513 -844 
Q 928 -128 1133 580 
Q 1338 1288 1338 2009 
Q 1338 2731 1133 3434 
Q 928 4138 513 4856 
z
" transform="scale(0.015625)"/>
      </defs>
      <use xlink:href="#DejaVuSans-41"/>
      <use xlink:href="#DejaVuSans-67" transform="translate(68.408203 0)"/>
      <use xlink:href="#DejaVuSans-65" transform="translate(131.884766 0)"/>
      <use xlink:href="#DejaVuSans-6e" transform="translate(193.408203 0)"/>
      <use xlink:href="#DejaVuSans-74" transform="translate(256.787109 0)"/>
      <use xlink:href="#DejaVuSans-20" transform="translate(295.996094 0)"/>
      <use xlink:href="#DejaVuSans-6c" transform="translate(327.783203 0)"/>
      <use xlink:href="#DejaVuSans-6f" transform="translate(355.566406 0)"/>
      <use xlink:href="#DejaVuSans-6f" transform="translate(416.748047 0)"/>
      <use xlink:href="#DejaVuSans-70" transform="translate(477.929688 0)"/>
      <use xlink:href="#DejaVuSans-20" transform="translate(541.40625 0)"/>
      <use xlink:href="#DejaVuSans-69" transform="translate(573.193359 0)"/>
      <use xlink:href="#DejaVuSans-74" transform="translate(600.976562 0)"/>
      <use xlink:href="#DejaVuSans-65" transform="translate(640.185547 0)"/>
      <use xlink:href="#DejaVuSans-72" transform="translate(701.708984 0)"/>
      <use xlink:href="#DejaVuSans-61" transform="translate(742.822266 0)"/>
      <use xlink:href="#DejaVuSans-74" transform="translate(804.101562 0)"/>
      <use xlink:href="#DejaVuSans-69" transform="translate(843.310547 0)"/>
      <use xlink:href="#DejaVuSans-6f" transform="translate(871.09375 0)"/>
      <use xlink:href="#DejaVuSans-6e" transform="translate(932.275391 0)"/>
      <use xlink:href="#DejaVuSans-20" transform="translate(995.654297 0)"/>
      <use xlink:href="#DejaVuSans-28" transform="translate(1027.441406 0)"/>
      <use xlink:href="#DejaVuSans-63" transform="translate(1066.455078 0)"/>
      <use xlink:href="#DejaVuSans-75" transform="translate(1121.435547 0)"/>
      <use xlink:href="#DejaVuSans-6d" transform="translate(1184.814453 0)"/>
      <use xlink:href="#DejaVuSans-75" transform="translate(1282.226562 0)"/>
      <use xlink:href="#DejaVuSans-6c" transform="translate(1345.605469 0)"/>
      <use xlink:href="#DejaVuSans-61" transform="translate(1373.388672 0)"/>
      <use xlink:href="#DejaVuSans-74" transform="translate(1434.667969 0)"/>
      <use xlink:href="#DejaVuSans-69" transform="translate(1473.876953 0)"/>
      <use xlink:href="#DejaVuSans-76" transform="translate(1501.660156 0)"/>
      <use xlink:href="#DejaVuSans-65" transform="translate(1560.839844 0)"/>
      <use xlink:href="#DejaVuSans-20" transform="translate(1622.363281 0)"/>
      <use xlink:href="#DejaVuSans-61" transform="translate(1654.150391 0)"/>
      <use xlink:href="#DejaVuSans-63" transform="translate(1715.429688 0)"/>
      <use xlink:href="#DejaVuSans-72" transform="translate(1770.410156 0)"/>
      <use xlink:href="#DejaVuSans-6f" transform="translate(1809.273438 0)"/>
      <use xlink:href="#DejaVuSans-73" transform="translate(1870.455078 0)"/>
      <use xlink:href="#DejaVuSans-73" transform="translate(1922.554688 0)"/>
      <use xlink:href="#DejaVuSans-20" transform="translate(1974.654297 0)"/>
      <use xlink:href="#DejaVuSans-61" transform="translate(2006.441406 0)"/>
      <use xlink:href="#DejaVuSans-6c" transform="translate(2067.720703 0)"/>
      <use xlink:href="#DejaVuSans-6c" transform="translate(2095.503906 0)"/>
      <use xlink:href="#DejaVuSans-20" transform="translate(2123.287109 0)"/>
      <use xlink:href="#DejaVuSans-61" transform="translate(2155.074219 0)"/>
      <use xlink:href="#DejaVuSans-67" transform="translate(2216.353516 0)"/>
      <use xlink:href="#DejaVuSans-65" transform="translate(2279.830078 0)"/>
      <use xlink:href="#DejaVuSans-6e" transform="translate(2341.353516 0)"/>
      <use xlink:href="#DejaVuSans-74" transform="translate(2404.732422 0)"/>
      <use xlink:href="#DejaVuSans-20" transform="translate(2443.941406 0)"/>
      <use xlink:href="#DejaVuSans-73" transform="translate(2475.728516 0)"/>
      <use xlink:href="#DejaVuSans-65" transform="translate(2527.828125 0)"/>
      <use xlink:href="#DejaVuSans-73" transform="translate(2589.351562 0)"/>
      <use xlink:href="#DejaVuSans-73" transform="translate(2641.451172 0)"/>
      <use xlink:href="#DejaVuSans-69" transform="translate(2693.550781 0)"/>
      <use xlink:href="#DejaVuSans-6f" transform="translate(2721.333984 0)"/>
      <use xlink:href="#DejaVuSans-6e" transform="translate(2782.515625 0)"/>
      <use xlink:href="#DejaVuSans-73" transform="translate(2845.894531 0)"/>
      <use xlink:href="#DejaVuSans-29" transform="translate(2897.994141 0)"/>
     </g>
    </g>
   </g>
   <g id="matplotlib.axis_2">
    <g id="ytick_1">
     <g id="line2d_13">
      <path d="M 110.88 519.552 
L 735.84 519.552 
" clip-path="url(#pa7ab092f9b)" style="fill: none; stroke: #d9d9d9; stroke-opacity: 0.7; stroke-width: 0.8; stroke-linecap: square"/>
     </g>
     <g id="line2d_14">
      <defs>
       <path id="mabd801339d" d="M 0 0 
L -3.5 0 
" style="stroke: #000000; stroke-width: 0.8"/>
      </defs>
      <g>
       <use xlink:href="#mabd801339d" x="110.88" y="519.552" style="stroke: #000000; stroke-width: 0.8"/>
      </g>
     </g>
     <g id="text_8">
      <!-- 0 -->
      <g transform="translate(97.5175 523.351219) scale(0.1 -0.1)">
       <use xlink:href="#DejaVuSans-30"/>
      </g>
     </g>
    </g>
    <g id="ytick_2">
     <g id="line2d_15">
      <path d="M 110.88 453.160545 
L 735.84 453.160545 
" clip-path="url(#pa7ab092f9b)" style="fill: none; stroke: #d9d9d9; stroke-opacity: 0.7; stroke-width: 0.8; stroke-linecap: square"/>
     </g>
     <g id="line2d_16">
      <g>
       <use xlink:href="#mabd801339d" x="110.88" y="453.160545" style="stroke: #000000; stroke-width: 0.8"/>
      </g>
     </g>
     <g id="text_9">
      <!-- 100 -->
      <g transform="translate(84.7925 456.959763) scale(0.1 -0.1)">
       <use xlink:href="#DejaVuSans-31"/>
       <use xlink:href="#DejaVuSans-30" transform="translate(63.623047 0)"/>
       <use xlink:href="#DejaVuSans-30" transform="translate(127.246094 0)"/>
      </g>
     </g>
    </g>
    <g id="ytick_3">
     <g id="line2d_17">
      <path d="M 110.88 386.769089 
L 735.84 386.769089 
" clip-path="url(#pa7ab092f9b)" style="fill: none; stroke: #d9d9d9; stroke-opacity: 0.7; stroke-width: 0.8; stroke-linecap: square"/>
     </g>
     <g id="line2d_18">
      <g>
       <use xlink:href="#mabd801339d" x="110.88" y="386.769089" style="stroke: #000000; stroke-width: 0.8"/>
      </g>
     </g>
     <g id="text_10">
      <!-- 200 -->
      <g transform="translate(84.7925 390.568308) scale(0.1 -0.1)">
       <use xlink:href="#DejaVuSans-32"/>
       <use xlink:href="#DejaVuSans-30" transform="translate(63.623047 0)"/>
       <use xlink:href="#DejaVuSans-30" transform="translate(127.246094 0)"/>
      </g>
     </g>
    </g>
    <g id="ytick_4">
     <g id="line2d_19">
      <path d="M 110.88 320.377634 
L 735.84 320.377634 
" clip-path="url(#pa7ab092f9b)" style="fill: none; stroke: #d9d9d9; stroke-opacity: 0.7; stroke-width: 0.8; stroke-linecap: square"/>
     </g>
     <g id="line2d_20">
      <g>
       <use xlink:href="#mabd801339d" x="110.88" y="320.377634" style="stroke: #000000; stroke-width: 0.8"/>
      </g>
     </g>
     <g id="text_11">
      <!-- 300 -->
      <g transform="translate(84.7925 324.176853) scale(0.1 -0.1)">
       <defs>
        <path id="DejaVuSans-33" d="M 2597 2516 
Q 3050 2419 3304 2112 
Q 3559 1806 3559 1356 
Q 3559 666 3084 287 
Q 2609 -91 1734 -91 
Q 1441 -91 1130 -33 
Q 819 25 488 141 
L 488 750 
Q 750 597 1062 519 
Q 1375 441 1716 441 
Q 2309 441 2620 675 
Q 2931 909 2931 1356 
Q 2931 1769 2642 2001 
Q 2353 2234 1838 2234 
L 1294 2234 
L 1294 2753 
L 1863 2753 
Q 2328 2753 2575 2939 
Q 2822 3125 2822 3475 
Q 2822 3834 2567 4026 
Q 2313 4219 1838 4219 
Q 1578 4219 1281 4162 
Q 984 4106 628 3988 
L 628 4550 
Q 988 4650 1302 4700 
Q 1616 4750 1894 4750 
Q 2613 4750 3031 4423 
Q 3450 4097 3450 3541 
Q 3450 3153 3228 2886 
Q 3006 2619 2597 2516 
z
" transform="scale(0.015625)"/>
       </defs>
       <use xlink:href="#DejaVuSans-33"/>
       <use xlink:href="#DejaVuSans-30" transform="translate(63.623047 0)"/>
       <use xlink:href="#DejaVuSans-30" transform="translate(127.246094 0)"/>
      </g>
     </g>
    </g>
    <g id="ytick_5">
     <g id="line2d_21">
      <path d="M 110.88 253.986179 
L 735.84 253.986179 
" clip-path="url(#pa7ab092f9b)" style="fill: none; stroke: #d9d9d9; stroke-opacity: 0.7; stroke-width: 0.8; stroke-linecap: square"/>
     </g>
     <g id="line2d_22">
      <g>
       <use xlink:href="#mabd801339d" x="110.88" y="253.986179" style="stroke: #000000; stroke-width: 0.8"/>
      </g>
     </g>
     <g id="text_12">
      <!-- 400 -->
      <g transform="translate(84.7925 257.785397) scale(0.1 -0.1)">
       <use xlink:href="#DejaVuSans-34"/>
       <use xlink:href="#DejaVuSans-30" transform="translate(63.623047 0)"/>
       <use xlink:href="#DejaVuSans-30" transform="translate(127.246094 0)"/>
      </g>
     </g>
    </g>
    <g id="ytick_6">
     <g id="line2d_23">
      <path d="M 110.88 187.594723 
L 735.84 187.594723 
" clip-path="url(#pa7ab092f9b)" style="fill: none; stroke: #d9d9d9; stroke-opacity: 0.7; stroke-width: 0.8; stroke-linecap: square"/>
     </g>
     <g id="line2d_24">
      <g>
       <use xlink:href="#mabd801339d" x="110.88" y="187.594723" style="stroke: #000000; stroke-width: 0.8"/>
      </g>
     </g>
     <g id="text_13">
      <!-- 500 -->
      <g transform="translate(84.7925 191.393942) scale(0.1 -0.1)">
       <defs>
        <path id="DejaVuSans-35" d="M 691 4666 
L 3169 4666 
L 3169 4134 
L 1269 4134 
L 1269 2991 
Q 1406 3038 1543 3061 
Q 1681 3084 1819 3084 
Q 2600 3084 3056 2656 
Q 3513 2228 3513 1497 
Q 3513 744 3044 326 
Q 2575 -91 1722 -91 
Q 1428 -91 1123 -41 
Q 819 9 494 109 
L 494 744 
Q 775 591 1075 516 
Q 1375 441 1709 441 
Q 2250 441 2565 725 
Q 2881 1009 2881 1497 
Q 2881 1984 2565 2268 
Q 2250 2553 1709 2553 
Q 1456 2553 1204 2497 
Q 953 2441 691 2322 
L 691 4666 
z
" transform="scale(0.015625)"/>
       </defs>
       <use xlink:href="#DejaVuSans-35"/>
       <use xlink:href="#DejaVuSans-30" transform="translate(63.623047 0)"/>
       <use xlink:href="#DejaVuSans-30" transform="translate(127.246094 0)"/>
      </g>
     </g>
    </g>
    <g id="ytick_7">
     <g id="line2d_25">
      <path d="M 110.88 121.203268 
L 735.84 121.203268 
" clip-path="url(#pa7ab092f9b)" style="fill: none; stroke: #d9d9d9; stroke-opacity: 0.7; stroke-width: 0.8; stroke-linecap: square"/>
     </g>
     <g id="line2d_26">
      <g>
       <use xlink:href="#mabd801339d" x="110.88" y="121.203268" style="stroke: #000000; stroke-width: 0.8"/>
      </g>
     </g>
     <g id="text_14">
      <!-- 600 -->
      <g transform="translate(84.7925 125.002487) scale(0.1 -0.1)">
       <use xlink:href="#DejaVuSans-36"/>
       <use xlink:href="#DejaVuSans-30" transform="translate(63.623047 0)"/>
       <use xlink:href="#DejaVuSans-30" transform="translate(127.246094 0)"/>
      </g>
     </g>
    </g>
    <g id="text_15">
     <!-- Benchmark score -->
     <g transform="translate(78.088906 345.847016) rotate(-90) scale(0.13 -0.13)">
      <defs>
       <path id="DejaVuSans-42" d="M 1259 2228 
L 1259 519 
L 2272 519 
Q 2781 519 3026 730 
Q 3272 941 3272 1375 
Q 3272 1813 3026 2020 
Q 2781 2228 2272 2228 
L 1259 2228 
z
M 1259 4147 
L 1259 2741 
L 2194 2741 
Q 2656 2741 2882 2914 
Q 3109 3088 3109 3444 
Q 3109 3797 2882 3972 
Q 2656 4147 2194 4147 
L 1259 4147 
z
M 628 4666 
L 2241 4666 
Q 2963 4666 3353 4366 
Q 3744 4066 3744 3513 
Q 3744 3084 3544 2831 
Q 3344 2578 2956 2516 
Q 3422 2416 3680 2098 
Q 3938 1781 3938 1306 
Q 3938 681 3513 340 
Q 3088 0 2303 0 
L 628 0 
L 628 4666 
z
" transform="scale(0.015625)"/>
       <path id="DejaVuSans-68" d="M 3513 2113 
L 3513 0 
L 2938 0 
L 2938 2094 
Q 2938 2591 2744 2837 
Q 2550 3084 2163 3084 
Q 1697 3084 1428 2787 
Q 1159 2491 1159 1978 
L 1159 0 
L 581 0 
L 581 4863 
L 1159 4863 
L 1159 2956 
Q 1366 3272 1645 3428 
Q 1925 3584 2291 3584 
Q 2894 3584 3203 3211 
Q 3513 2838 3513 2113 
z
" transform="scale(0.015625)"/>
       <path id="DejaVuSans-6b" d="M 581 4863 
L 1159 4863 
L 1159 1991 
L 2875 3500 
L 3609 3500 
L 1753 1863 
L 3688 0 
L 2938 0 
L 1159 1709 
L 1159 0 
L 581 0 
L 581 4863 
z
" transform="scale(0.015625)"/>
      </defs>
      <use xlink:href="#DejaVuSans-42"/>
      <use xlink:href="#DejaVuSans-65" transform="translate(68.603516 0)"/>
      <use xlink:href="#DejaVuSans-6e" transform="translate(130.126953 0)"/>
      <use xlink:href="#DejaVuSans-63" transform="translate(193.505859 0)"/>
      <use xlink:href="#DejaVuSans-68" transform="translate(248.486328 0)"/>
      <use xlink:href="#DejaVuSans-6d" transform="translate(311.865234 0)"/>
      <use xlink:href="#DejaVuSans-61" transform="translate(409.277344 0)"/>
      <use xlink:href="#DejaVuSans-72" transform="translate(470.556641 0)"/>
      <use xlink:href="#DejaVuSans-6b" transform="translate(511.669922 0)"/>
      <use xlink:href="#DejaVuSans-20" transform="translate(569.580078 0)"/>
      <use xlink:href="#DejaVuSans-73" transform="translate(601.367188 0)"/>
      <use xlink:href="#DejaVuSans-63" transform="translate(653.466797 0)"/>
      <use xlink:href="#DejaVuSans-6f" transform="translate(708.447266 0)"/>
      <use xlink:href="#DejaVuSans-72" transform="translate(769.628906 0)"/>
      <use xlink:href="#DejaVuSans-65" transform="translate(808.492188 0)"/>
     </g>
    </g>
   </g>
   <g id="20260416-191028-claude-opus-4-7-adaptive_learning.jsonl">
    <path d="M 131.887059 519.552 
L 142.768578 465.774921 
L 147.922982 396.063893 
L 151.359251 398.055637 
L 154.222808 399.715423 
L 157.086366 482.372785 
L 159.949924 485.692358 
L 162.813481 489.011931 
L 165.677039 519.552 
L 168.540597 519.552 
L 171.404154 498.970649 
L 174.267712 519.552 
L 177.131269 412.993714 
L 179.994827 519.552 
L 182.858385 512.24894 
" clip-path="url(#pa7ab092f9b)" style="fill: none; stroke: #4477aa; stroke-opacity: 0.82; stroke-width: 2.2; stroke-linecap: square"/>
   </g>
   <g id="20260416-112023-google-gemini-3.1-pro-preview-kaggle.jsonl">
    <path d="M 131.887059 519.552 
L 142.768578 324.582426 
L 178.849404 267.596427 
L 214.357519 137.137217 
L 238.411403 72.452971 
L 277.928498 518.888085 
L 318.018305 157.165306 
L 344.363035 89.999284 
L 400.488765 518.888085 
L 425.115361 386.105175 
L 450.314668 107.545597 
L 503.004129 386.105175 
L 536.794109 186.930809 
L 567.14782 120.539354 
L 603.228646 120.539354 
L 610.673896 519.552 
L 623.273549 386.105175 
L 657.063529 120.539354 
" clip-path="url(#pa7ab092f9b)" style="fill: none; stroke: #ee6677; stroke-opacity: 0.82; stroke-width: 2.2; stroke-linecap: square"/>
   </g>
   <g id="20260416-142036-gpt-5-adaptive_learning.jsonl">
    <path d="M 131.887059 519.552 
L 145.059424 519.552 
L 160.522635 486.356272 
L 183.431096 519.552 
L 194.885327 518.888085 
L 214.93023 519.552 
L 238.411403 518.888085 
L 263.037999 518.888085 
L 293.964421 383.006907 
L 312.29119 519.552 
L 322.027286 518.888085 
L 346.653882 519.552 
" clip-path="url(#pa7ab092f9b)" style="fill: none; stroke: #228833; stroke-opacity: 0.82; stroke-width: 2.2; stroke-linecap: square"/>
   </g>
   <g id="20260416-140441-gpt-5.4-adaptive_learning.jsonl">
    <path d="M 131.887059 519.552 
L 134.750616 456.480117 
" clip-path="url(#pa7ab092f9b)" style="fill: none; stroke: #ccbb44; stroke-opacity: 0.82; stroke-width: 2.2; stroke-linecap: square"/>
   </g>
   <g id="patch_3">
    <path d="M 110.88 519.552 
L 110.88 59.04 
" style="fill: none; stroke: #000000; stroke-width: 0.8; stroke-linejoin: miter; stroke-linecap: square"/>
   </g>
   <g id="patch_4">
    <path d="M 735.84 519.552 
L 735.84 59.04 
" style="fill: none; stroke: #000000; stroke-width: 0.8; stroke-linejoin: miter; stroke-linecap: square"/>
   </g>
   <g id="patch_5">
    <path d="M 110.88 519.552 
L 735.84 519.552 
" style="fill: none; stroke: #000000; stroke-width: 0.8; stroke-linejoin: miter; stroke-linecap: square"/>
   </g>
   <g id="patch_6">
    <path d="M 110.88 59.04 
L 735.84 59.04 
" style="fill: none; stroke: #000000; stroke-width: 0.8; stroke-linejoin: miter; stroke-linecap: square"/>
   </g>
   <g id="text_16">
    <g id="patch_7">
     <path d="M 142.628264 463.31918 
L 178.756389 463.31918 
Q 180.756389 463.31918 180.756389 461.31918 
L 180.756389 451.641055 
Q 180.756389 449.641055 178.756389 449.641055 
L 142.628264 449.641055 
Q 140.628264 449.641055 140.628264 451.641055 
L 140.628264 461.31918 
Q 140.628264 463.31918 142.628264 463.31918 
z
" style="fill: #ffffff; opacity: 0.85"/>
    </g>
    <!-- gpt-5.4 -->
    <g style="fill: #ccbb44" transform="translate(142.628264 459.239492) scale(0.1 -0.1)">
     <defs>
      <path id="DejaVuSans-2d" d="M 313 2009 
L 1997 2009 
L 1997 1497 
L 313 1497 
L 313 2009 
z
" transform="scale(0.015625)"/>
      <path id="DejaVuSans-2e" d="M 684 794 
L 1344 794 
L 1344 0 
L 684 0 
L 684 794 
z
" transform="scale(0.015625)"/>
     </defs>
     <use xlink:href="#DejaVuSans-67"/>
     <use xlink:href="#DejaVuSans-70" transform="translate(63.476562 0)"/>
     <use xlink:href="#DejaVuSans-74" transform="translate(126.953125 0)"/>
     <use xlink:href="#DejaVuSans-2d" transform="translate(166.162109 0)"/>
     <use xlink:href="#DejaVuSans-35" transform="translate(202.246094 0)"/>
     <use xlink:href="#DejaVuSans-2e" transform="translate(265.869141 0)"/>
     <use xlink:href="#DejaVuSans-34" transform="translate(297.65625 0)"/>
    </g>
   </g>
   <g id="text_17">
    <g id="patch_8">
     <path d="M 155.800629 402.902956 
L 236.794379 402.902956 
Q 238.794379 402.902956 238.794379 400.902956 
L 238.794379 391.224831 
Q 238.794379 389.224831 236.794379 389.224831 
L 155.800629 389.224831 
Q 153.800629 389.224831 153.800629 391.224831 
L 153.800629 400.902956 
Q 153.800629 402.902956 155.800629 402.902956 
z
" style="fill: #ffffff; opacity: 0.85"/>
    </g>
    <!-- claude-opus-4-7 -->
    <g style="fill: #4477aa" transform="translate(155.800629 398.823268) scale(0.1 -0.1)">
     <defs>
      <path id="DejaVuSans-64" d="M 2906 2969 
L 2906 4863 
L 3481 4863 
L 3481 0 
L 2906 0 
L 2906 525 
Q 2725 213 2448 61 
Q 2172 -91 1784 -91 
Q 1150 -91 751 415 
Q 353 922 353 1747 
Q 353 2572 751 3078 
Q 1150 3584 1784 3584 
Q 2172 3584 2448 3432 
Q 2725 3281 2906 2969 
z
M 947 1747 
Q 947 1113 1208 752 
Q 1469 391 1925 391 
Q 2381 391 2643 752 
Q 2906 1113 2906 1747 
Q 2906 2381 2643 2742 
Q 2381 3103 1925 3103 
Q 1469 3103 1208 2742 
Q 947 2381 947 1747 
z
" transform="scale(0.015625)"/>
      <path id="DejaVuSans-37" d="M 525 4666 
L 3525 4666 
L 3525 4397 
L 1831 0 
L 1172 0 
L 2766 4134 
L 525 4134 
L 525 4666 
z
" transform="scale(0.015625)"/>
     </defs>
     <use xlink:href="#DejaVuSans-63"/>
     <use xlink:href="#DejaVuSans-6c" transform="translate(54.980469 0)"/>
     <use xlink:href="#DejaVuSans-61" transform="translate(82.763672 0)"/>
     <use xlink:href="#DejaVuSans-75" transform="translate(144.042969 0)"/>
     <use xlink:href="#DejaVuSans-64" transform="translate(207.421875 0)"/>
     <use xlink:href="#DejaVuSans-65" transform="translate(270.898438 0)"/>
     <use xlink:href="#DejaVuSans-2d" transform="translate(332.421875 0)"/>
     <use xlink:href="#DejaVuSans-6f" transform="translate(370.380859 0)"/>
     <use xlink:href="#DejaVuSans-70" transform="translate(431.5625 0)"/>
     <use xlink:href="#DejaVuSans-75" transform="translate(495.039062 0)"/>
     <use xlink:href="#DejaVuSans-73" transform="translate(558.417969 0)"/>
     <use xlink:href="#DejaVuSans-2d" transform="translate(610.517578 0)"/>
     <use xlink:href="#DejaVuSans-34" transform="translate(646.601562 0)"/>
     <use xlink:href="#DejaVuSans-2d" transform="translate(710.224609 0)"/>
     <use xlink:href="#DejaVuSans-37" transform="translate(746.308594 0)"/>
    </g>
   </g>
   <g id="text_18">
    <g id="patch_9">
     <path d="M 301.842068 389.845969 
L 328.429568 389.845969 
Q 330.429568 389.845969 330.429568 387.845969 
L 330.429568 378.167844 
Q 330.429568 376.167844 328.429568 376.167844 
L 301.842068 376.167844 
Q 299.842068 376.167844 299.842068 378.167844 
L 299.842068 387.845969 
Q 299.842068 389.845969 301.842068 389.845969 
z
" style="fill: #ffffff; opacity: 0.85"/>
    </g>
    <!-- gpt-5 -->
    <g style="fill: #228833" transform="translate(301.842068 385.766282) scale(0.1 -0.1)">
     <use xlink:href="#DejaVuSans-67"/>
     <use xlink:href="#DejaVuSans-70" transform="translate(63.476562 0)"/>
     <use xlink:href="#DejaVuSans-74" transform="translate(126.953125 0)"/>
     <use xlink:href="#DejaVuSans-2d" transform="translate(166.162109 0)"/>
     <use xlink:href="#DejaVuSans-35" transform="translate(202.246094 0)"/>
    </g>
   </g>
   <g id="text_19">
    <g id="patch_10">
     <path d="M 246.28905 79.292033 
L 319.896862 79.292033 
Q 321.896862 79.292033 321.896862 77.292033 
L 321.896862 67.613908 
Q 321.896862 65.613908 319.896862 65.613908 
L 246.28905 65.613908 
Q 244.28905 65.613908 244.28905 67.613908 
L 244.28905 77.292033 
Q 244.28905 79.292033 246.28905 79.292033 
z
" style="fill: #ffffff; opacity: 0.85"/>
    </g>
    <!-- gemini-3.1-pro -->
    <g style="fill: #ee6677" transform="translate(246.28905 75.212346) scale(0.1 -0.1)">
     <use xlink:href="#DejaVuSans-67"/>
     <use xlink:href="#DejaVuSans-65" transform="translate(63.476562 0)"/>
     <use xlink:href="#DejaVuSans-6d" transform="translate(125 0)"/>
     <use xlink:href="#DejaVuSans-69" transform="translate(222.412109 0)"/>
     <use xlink:href="#DejaVuSans-6e" transform="translate(250.195312 0)"/>
     <use xlink:href="#DejaVuSans-69" transform="translate(313.574219 0)"/>
     <use xlink:href="#DejaVuSans-2d" transform="translate(341.357422 0)"/>
     <use xlink:href="#DejaVuSans-33" transform="translate(377.441406 0)"/>
     <use xlink:href="#DejaVuSans-2e" transform="translate(441.064453 0)"/>
     <use xlink:href="#DejaVuSans-31" transform="translate(472.851562 0)"/>
     <use xlink:href="#DejaVuSans-2d" transform="translate(536.474609 0)"/>
     <use xlink:href="#DejaVuSans-70" transform="translate(572.558594 0)"/>
     <use xlink:href="#DejaVuSans-72" transform="translate(636.035156 0)"/>
     <use xlink:href="#DejaVuSans-6f" transform="translate(674.898438 0)"/>
    </g>
   </g>
   <g id="text_20">
    <!-- Benchmark Score Trajectories by Log -->
    <g transform="translate(256.501406 53.04) scale(0.18 -0.18)">
     <defs>
      <path id="DejaVuSans-53" d="M 3425 4513 
L 3425 3897 
Q 3066 4069 2747 4153 
Q 2428 4238 2131 4238 
Q 1616 4238 1336 4038 
Q 1056 3838 1056 3469 
Q 1056 3159 1242 3001 
Q 1428 2844 1947 2747 
L 2328 2669 
Q 3034 2534 3370 2195 
Q 3706 1856 3706 1288 
Q 3706 609 3251 259 
Q 2797 -91 1919 -91 
Q 1588 -91 1214 -16 
Q 841 59 441 206 
L 441 856 
Q 825 641 1194 531 
Q 1563 422 1919 422 
Q 2459 422 2753 634 
Q 3047 847 3047 1241 
Q 3047 1584 2836 1778 
Q 2625 1972 2144 2069 
L 1759 2144 
Q 1053 2284 737 2584 
Q 422 2884 422 3419 
Q 422 4038 858 4394 
Q 1294 4750 2059 4750 
Q 2388 4750 2728 4690 
Q 3069 4631 3425 4513 
z
" transform="scale(0.015625)"/>
      <path id="DejaVuSans-54" d="M -19 4666 
L 3928 4666 
L 3928 4134 
L 2272 4134 
L 2272 0 
L 1638 0 
L 1638 4134 
L -19 4134 
L -19 4666 
z
" transform="scale(0.015625)"/>
      <path id="DejaVuSans-6a" d="M 603 3500 
L 1178 3500 
L 1178 -63 
Q 1178 -731 923 -1031 
Q 669 -1331 103 -1331 
L -116 -1331 
L -116 -844 
L 38 -844 
Q 366 -844 484 -692 
Q 603 -541 603 -63 
L 603 3500 
z
M 603 4863 
L 1178 4863 
L 1178 4134 
L 603 4134 
L 603 4863 
z
" transform="scale(0.015625)"/>
      <path id="DejaVuSans-62" d="M 3116 1747 
Q 3116 2381 2855 2742 
Q 2594 3103 2138 3103 
Q 1681 3103 1420 2742 
Q 1159 2381 1159 1747 
Q 1159 1113 1420 752 
Q 1681 391 2138 391 
Q 2594 391 2855 752 
Q 3116 1113 3116 1747 
z
M 1159 2969 
Q 1341 3281 1617 3432 
Q 1894 3584 2278 3584 
Q 2916 3584 3314 3078 
Q 3713 2572 3713 1747 
Q 3713 922 3314 415 
Q 2916 -91 2278 -91 
Q 1894 -91 1617 61 
Q 1341 213 1159 525 
L 1159 0 
L 581 0 
L 581 4863 
L 1159 4863 
L 1159 2969 
z
" transform="scale(0.015625)"/>
      <path id="DejaVuSans-79" d="M 2059 -325 
Q 1816 -950 1584 -1140 
Q 1353 -1331 966 -1331 
L 506 -1331 
L 506 -850 
L 844 -850 
Q 1081 -850 1212 -737 
Q 1344 -625 1503 -206 
L 1606 56 
L 191 3500 
L 800 3500 
L 1894 763 
L 2988 3500 
L 3597 3500 
L 2059 -325 
z
" transform="scale(0.015625)"/>
      <path id="DejaVuSans-4c" d="M 628 4666 
L 1259 4666 
L 1259 531 
L 3531 531 
L 3531 0 
L 628 0 
L 628 4666 
z
" transform="scale(0.015625)"/>
     </defs>
     <use xlink:href="#DejaVuSans-42"/>
     <use xlink:href="#DejaVuSans-65" transform="translate(68.603516 0)"/>
     <use xlink:href="#DejaVuSans-6e" transform="translate(130.126953 0)"/>
     <use xlink:href="#DejaVuSans-63" transform="translate(193.505859 0)"/>
     <use xlink:href="#DejaVuSans-68" transform="translate(248.486328 0)"/>
     <use xlink:href="#DejaVuSans-6d" transform="translate(311.865234 0)"/>
     <use xlink:href="#DejaVuSans-61" transform="translate(409.277344 0)"/>
     <use xlink:href="#DejaVuSans-72" transform="translate(470.556641 0)"/>
     <use xlink:href="#DejaVuSans-6b" transform="translate(511.669922 0)"/>
     <use xlink:href="#DejaVuSans-20" transform="translate(569.580078 0)"/>
     <use xlink:href="#DejaVuSans-53" transform="translate(601.367188 0)"/>
     <use xlink:href="#DejaVuSans-63" transform="translate(664.84375 0)"/>
     <use xlink:href="#DejaVuSans-6f" transform="translate(719.824219 0)"/>
     <use xlink:href="#DejaVuSans-72" transform="translate(781.005859 0)"/>
     <use xlink:href="#DejaVuSans-65" transform="translate(819.869141 0)"/>
     <use xlink:href="#DejaVuSans-20" transform="translate(881.392578 0)"/>
     <use xlink:href="#DejaVuSans-54" transform="translate(913.179688 0)"/>
     <use xlink:href="#DejaVuSans-72" transform="translate(959.513672 0)"/>
     <use xlink:href="#DejaVuSans-61" transform="translate(1000.626953 0)"/>
     <use xlink:href="#DejaVuSans-6a" transform="translate(1061.90625 0)"/>
     <use xlink:href="#DejaVuSans-65" transform="translate(1089.689453 0)"/>
     <use xlink:href="#DejaVuSans-63" transform="translate(1151.212891 0)"/>
     <use xlink:href="#DejaVuSans-74" transform="translate(1206.193359 0)"/>
     <use xlink:href="#DejaVuSans-6f" transform="translate(1245.402344 0)"/>
     <use xlink:href="#DejaVuSans-72" transform="translate(1306.583984 0)"/>
     <use xlink:href="#DejaVuSans-69" transform="translate(1347.697266 0)"/>
     <use xlink:href="#DejaVuSans-65" transform="translate(1375.480469 0)"/>
     <use xlink:href="#DejaVuSans-73" transform="translate(1437.003906 0)"/>
     <use xlink:href="#DejaVuSans-20" transform="translate(1489.103516 0)"/>
     <use xlink:href="#DejaVuSans-62" transform="translate(1520.890625 0)"/>
     <use xlink:href="#DejaVuSans-79" transform="translate(1584.367188 0)"/>
     <use xlink:href="#DejaVuSans-20" transform="translate(1643.546875 0)"/>
     <use xlink:href="#DejaVuSans-4c" transform="translate(1675.333984 0)"/>
     <use xlink:href="#DejaVuSans-6f" transform="translate(1729.296875 0)"/>
     <use xlink:href="#DejaVuSans-67" transform="translate(1790.478516 0)"/>
    </g>
   </g>
   <g id="PathCollection_1">
    <defs>
     <path id="m5b37ba9f5e" d="M 0 2.12132 
C 0.562581 2.12132 1.102195 1.897805 1.5 1.5 
C 1.897805 1.102195 2.12132 0.562581 2.12132 0 
C 2.12132 -0.562581 1.897805 -1.102195 1.5 -1.5 
C 1.102195 -1.897805 0.562581 -2.12132 0 -2.12132 
C -0.562581 -2.12132 -1.102195 -1.897805 -1.5 -1.5 
C -1.897805 -1.102195 -2.12132 -0.562581 -2.12132 0 
C -2.12132 0.562581 -1.897805 1.102195 -1.5 1.5 
C -1.102195 1.897805 -0.562581 2.12132 0 2.12132 
z
" style="stroke: #4477aa; stroke-opacity: 0.9"/>
    </defs>
    <g clip-path="url(#pa7ab092f9b)">
     <use xlink:href="#m5b37ba9f5e" x="131.887059" y="519.552" style="fill: #4477aa; fill-opacity: 0.9; stroke: #4477aa; stroke-opacity: 0.9"/>
     <use xlink:href="#m5b37ba9f5e" x="142.768578" y="465.774921" style="fill: #4477aa; fill-opacity: 0.9; stroke: #4477aa; stroke-opacity: 0.9"/>
     <use xlink:href="#m5b37ba9f5e" x="147.922982" y="396.063893" style="fill: #4477aa; fill-opacity: 0.9; stroke: #4477aa; stroke-opacity: 0.9"/>
     <use xlink:href="#m5b37ba9f5e" x="151.359251" y="398.055637" style="fill: #4477aa; fill-opacity: 0.9; stroke: #4477aa; stroke-opacity: 0.9"/>
     <use xlink:href="#m5b37ba9f5e" x="154.222808" y="399.715423" style="fill: #4477aa; fill-opacity: 0.9; stroke: #4477aa; stroke-opacity: 0.9"/>
     <use xlink:href="#m5b37ba9f5e" x="157.086366" y="482.372785" style="fill: #4477aa; fill-opacity: 0.9; stroke: #4477aa; stroke-opacity: 0.9"/>
     <use xlink:href="#m5b37ba9f5e" x="159.949924" y="485.692358" style="fill: #4477aa; fill-opacity: 0.9; stroke: #4477aa; stroke-opacity: 0.9"/>
     <use xlink:href="#m5b37ba9f5e" x="162.813481" y="489.011931" style="fill: #4477aa; fill-opacity: 0.9; stroke: #4477aa; stroke-opacity: 0.9"/>
     <use xlink:href="#m5b37ba9f5e" x="165.677039" y="519.552" style="fill: #4477aa; fill-opacity: 0.9; stroke: #4477aa; stroke-opacity: 0.9"/>
     <use xlink:href="#m5b37ba9f5e" x="168.540597" y="519.552" style="fill: #4477aa; fill-opacity: 0.9; stroke: #4477aa; stroke-opacity: 0.9"/>
     <use xlink:href="#m5b37ba9f5e" x="171.404154" y="498.970649" style="fill: #4477aa; fill-opacity: 0.9; stroke: #4477aa; stroke-opacity: 0.9"/>
     <use xlink:href="#m5b37ba9f5e" x="174.267712" y="519.552" style="fill: #4477aa; fill-opacity: 0.9; stroke: #4477aa; stroke-opacity: 0.9"/>
     <use xlink:href="#m5b37ba9f5e" x="177.131269" y="412.993714" style="fill: #4477aa; fill-opacity: 0.9; stroke: #4477aa; stroke-opacity: 0.9"/>
     <use xlink:href="#m5b37ba9f5e" x="179.994827" y="519.552" style="fill: #4477aa; fill-opacity: 0.9; stroke: #4477aa; stroke-opacity: 0.9"/>
     <use xlink:href="#m5b37ba9f5e" x="182.858385" y="512.24894" style="fill: #4477aa; fill-opacity: 0.9; stroke: #4477aa; stroke-opacity: 0.9"/>
    </g>
   </g>
   <g id="PathCollection_2">
    <defs>
     <path id="mf8a145b8f5" d="M 0 2.12132 
C 0.562581 2.12132 1.102195 1.897805 1.5 1.5 
C 1.897805 1.102195 2.12132 0.562581 2.12132 0 
C 2.12132 -0.562581 1.897805 -1.102195 1.5 -1.5 
C 1.102195 -1.897805 0.562581 -2.12132 0 -2.12132 
C -0.562581 -2.12132 -1.102195 -1.897805 -1.5 -1.5 
C -1.897805 -1.102195 -2.12132 -0.562581 -2.12132 0 
C -2.12132 0.562581 -1.897805 1.102195 -1.5 1.5 
C -1.102195 1.897805 -0.562581 2.12132 0 2.12132 
z
" style="stroke: #ee6677; stroke-opacity: 0.9"/>
    </defs>
    <g clip-path="url(#pa7ab092f9b)">
     <use xlink:href="#mf8a145b8f5" x="131.887059" y="519.552" style="fill: #ee6677; fill-opacity: 0.9; stroke: #ee6677; stroke-opacity: 0.9"/>
     <use xlink:href="#mf8a145b8f5" x="142.768578" y="324.582426" style="fill: #ee6677; fill-opacity: 0.9; stroke: #ee6677; stroke-opacity: 0.9"/>
     <use xlink:href="#mf8a145b8f5" x="178.849404" y="267.596427" style="fill: #ee6677; fill-opacity: 0.9; stroke: #ee6677; stroke-opacity: 0.9"/>
     <use xlink:href="#mf8a145b8f5" x="214.357519" y="137.137217" style="fill: #ee6677; fill-opacity: 0.9; stroke: #ee6677; stroke-opacity: 0.9"/>
     <use xlink:href="#mf8a145b8f5" x="238.411403" y="72.452971" style="fill: #ee6677; fill-opacity: 0.9; stroke: #ee6677; stroke-opacity: 0.9"/>
     <use xlink:href="#mf8a145b8f5" x="277.928498" y="518.888085" style="fill: #ee6677; fill-opacity: 0.9; stroke: #ee6677; stroke-opacity: 0.9"/>
     <use xlink:href="#mf8a145b8f5" x="318.018305" y="157.165306" style="fill: #ee6677; fill-opacity: 0.9; stroke: #ee6677; stroke-opacity: 0.9"/>
     <use xlink:href="#mf8a145b8f5" x="344.363035" y="89.999284" style="fill: #ee6677; fill-opacity: 0.9; stroke: #ee6677; stroke-opacity: 0.9"/>
     <use xlink:href="#mf8a145b8f5" x="400.488765" y="518.888085" style="fill: #ee6677; fill-opacity: 0.9; stroke: #ee6677; stroke-opacity: 0.9"/>
     <use xlink:href="#mf8a145b8f5" x="425.115361" y="386.105175" style="fill: #ee6677; fill-opacity: 0.9; stroke: #ee6677; stroke-opacity: 0.9"/>
     <use xlink:href="#mf8a145b8f5" x="450.314668" y="107.545597" style="fill: #ee6677; fill-opacity: 0.9; stroke: #ee6677; stroke-opacity: 0.9"/>
     <use xlink:href="#mf8a145b8f5" x="503.004129" y="386.105175" style="fill: #ee6677; fill-opacity: 0.9; stroke: #ee6677; stroke-opacity: 0.9"/>
     <use xlink:href="#mf8a145b8f5" x="536.794109" y="186.930809" style="fill: #ee6677; fill-opacity: 0.9; stroke: #ee6677; stroke-opacity: 0.9"/>
     <use xlink:href="#mf8a145b8f5" x="567.14782" y="120.539354" style="fill: #ee6677; fill-opacity: 0.9; stroke: #ee6677; stroke-opacity: 0.9"/>
     <use xlink:href="#mf8a145b8f5" x="603.228646" y="120.539354" style="fill: #ee6677; fill-opacity: 0.9; stroke: #ee6677; stroke-opacity: 0.9"/>
     <use xlink:href="#mf8a145b8f5" x="610.673896" y="519.552" style="fill: #ee6677; fill-opacity: 0.9; stroke: #ee6677; stroke-opacity: 0.9"/>
     <use xlink:href="#mf8a145b8f5" x="623.273549" y="386.105175" style="fill: #ee6677; fill-opacity: 0.9; stroke: #ee6677; stroke-opacity: 0.9"/>
     <use xlink:href="#mf8a145b8f5" x="657.063529" y="120.539354" style="fill: #ee6677; fill-opacity: 0.9; stroke: #ee6677; stroke-opacity: 0.9"/>
    </g>
   </g>
   <g id="PathCollection_3">
    <defs>
     <path id="macae83621c" d="M 0 2.12132 
C 0.562581 2.12132 1.102195 1.897805 1.5 1.5 
C 1.897805 1.102195 2.12132 0.562581 2.12132 0 
C 2.12132 -0.562581 1.897805 -1.102195 1.5 -1.5 
C 1.102195 -1.897805 0.562581 -2.12132 0 -2.12132 
C -0.562581 -2.12132 -1.102195 -1.897805 -1.5 -1.5 
C -1.897805 -1.102195 -2.12132 -0.562581 -2.12132 0 
C -2.12132 0.562581 -1.897805 1.102195 -1.5 1.5 
C -1.102195 1.897805 -0.562581 2.12132 0 2.12132 
z
" style="stroke: #228833; stroke-opacity: 0.9"/>
    </defs>
    <g clip-path="url(#pa7ab092f9b)">
     <use xlink:href="#macae83621c" x="131.887059" y="519.552" style="fill: #228833; fill-opacity: 0.9; stroke: #228833; stroke-opacity: 0.9"/>
     <use xlink:href="#macae83621c" x="145.059424" y="519.552" style="fill: #228833; fill-opacity: 0.9; stroke: #228833; stroke-opacity: 0.9"/>
     <use xlink:href="#macae83621c" x="160.522635" y="486.356272" style="fill: #228833; fill-opacity: 0.9; stroke: #228833; stroke-opacity: 0.9"/>
     <use xlink:href="#macae83621c" x="183.431096" y="519.552" style="fill: #228833; fill-opacity: 0.9; stroke: #228833; stroke-opacity: 0.9"/>
     <use xlink:href="#macae83621c" x="194.885327" y="518.888085" style="fill: #228833; fill-opacity: 0.9; stroke: #228833; stroke-opacity: 0.9"/>
     <use xlink:href="#macae83621c" x="214.93023" y="519.552" style="fill: #228833; fill-opacity: 0.9; stroke: #228833; stroke-opacity: 0.9"/>
     <use xlink:href="#macae83621c" x="238.411403" y="518.888085" style="fill: #228833; fill-opacity: 0.9; stroke: #228833; stroke-opacity: 0.9"/>
     <use xlink:href="#macae83621c" x="263.037999" y="518.888085" style="fill: #228833; fill-opacity: 0.9; stroke: #228833; stroke-opacity: 0.9"/>
     <use xlink:href="#macae83621c" x="293.964421" y="383.006907" style="fill: #228833; fill-opacity: 0.9; stroke: #228833; stroke-opacity: 0.9"/>
     <use xlink:href="#macae83621c" x="312.29119" y="519.552" style="fill: #228833; fill-opacity: 0.9; stroke: #228833; stroke-opacity: 0.9"/>
     <use xlink:href="#macae83621c" x="322.027286" y="518.888085" style="fill: #228833; fill-opacity: 0.9; stroke: #228833; stroke-opacity: 0.9"/>
     <use xlink:href="#macae83621c" x="346.653882" y="519.552" style="fill: #228833; fill-opacity: 0.9; stroke: #228833; stroke-opacity: 0.9"/>
    </g>
   </g>
   <g id="PathCollection_4">
    <defs>
     <path id="m14f8ff9418" d="M 0 2.12132 
C 0.562581 2.12132 1.102195 1.897805 1.5 1.5 
C 1.897805 1.102195 2.12132 0.562581 2.12132 0 
C 2.12132 -0.562581 1.897805 -1.102195 1.5 -1.5 
C 1.102195 -1.897805 0.562581 -2.12132 0 -2.12132 
C -0.562581 -2.12132 -1.102195 -1.897805 -1.5 -1.5 
C -1.897805 -1.102195 -2.12132 -0.562581 -2.12132 0 
C -2.12132 0.562581 -1.897805 1.102195 -1.5 1.5 
C -1.102195 1.897805 -0.562581 2.12132 0 2.12132 
z
" style="stroke: #ccbb44; stroke-opacity: 0.9"/>
    </defs>
    <g clip-path="url(#pa7ab092f9b)">
     <use xlink:href="#m14f8ff9418" x="131.887059" y="519.552" style="fill: #ccbb44; fill-opacity: 0.9; stroke: #ccbb44; stroke-opacity: 0.9"/>
     <use xlink:href="#m14f8ff9418" x="134.750616" y="456.480117" style="fill: #ccbb44; fill-opacity: 0.9; stroke: #ccbb44; stroke-opacity: 0.9"/>
    </g>
   </g>
   <g id="PathCollection_5">
    <defs>
     <path id="mf9bb66108f" d="M 0 3.24037 
C 0.859356 3.24037 1.683631 2.898944 2.291288 2.291288 
C 2.898944 1.683631 3.24037 0.859356 3.24037 0 
C 3.24037 -0.859356 2.898944 -1.683631 2.291288 -2.291288 
C 1.683631 -2.898944 0.859356 -3.24037 0 -3.24037 
C -0.859356 -3.24037 -1.683631 -2.898944 -2.291288 -2.291288 
C -2.898944 -1.683631 -3.24037 -0.859356 -3.24037 0 
C -3.24037 0.859356 -2.898944 1.683631 -2.291288 2.291288 
C -1.683631 2.898944 -0.859356 3.24037 0 3.24037 
z
" style="stroke: #ccbb44"/>
    </defs>
    <g clip-path="url(#pa7ab092f9b)">
     <use xlink:href="#mf9bb66108f" x="134.750616" y="456.480117" style="fill: #ccbb44; stroke: #ccbb44"/>
    </g>
   </g>
   <g id="PathCollection_6">
    <defs>
     <path id="m369b78db72" d="M 0 3.24037 
C 0.859356 3.24037 1.683631 2.898944 2.291288 2.291288 
C 2.898944 1.683631 3.24037 0.859356 3.24037 0 
C 3.24037 -0.859356 2.898944 -1.683631 2.291288 -2.291288 
C 1.683631 -2.898944 0.859356 -3.24037 0 -3.24037 
C -0.859356 -3.24037 -1.683631 -2.898944 -2.291288 -2.291288 
C -2.898944 -1.683631 -3.24037 -0.859356 -3.24037 0 
C -3.24037 0.859356 -2.898944 1.683631 -2.291288 2.291288 
C -1.683631 2.898944 -0.859356 3.24037 0 3.24037 
z
" style="stroke: #4477aa"/>
    </defs>
    <g clip-path="url(#pa7ab092f9b)">
     <use xlink:href="#m369b78db72" x="147.922982" y="396.063893" style="fill: #4477aa; stroke: #4477aa"/>
    </g>
   </g>
   <g id="PathCollection_7">
    <defs>
     <path id="m14df26c2cc" d="M 0 3.24037 
C 0.859356 3.24037 1.683631 2.898944 2.291288 2.291288 
C 2.898944 1.683631 3.24037 0.859356 3.24037 0 
C 3.24037 -0.859356 2.898944 -1.683631 2.291288 -2.291288 
C 1.683631 -2.898944 0.859356 -3.24037 0 -3.24037 
C -0.859356 -3.24037 -1.683631 -2.898944 -2.291288 -2.291288 
C -2.898944 -1.683631 -3.24037 -0.859356 -3.24037 0 
C -3.24037 0.859356 -2.898944 1.683631 -2.291288 2.291288 
C -1.683631 2.898944 -0.859356 3.24037 0 3.24037 
z
" style="stroke: #228833"/>
    </defs>
    <g clip-path="url(#pa7ab092f9b)">
     <use xlink:href="#m14df26c2cc" x="293.964421" y="383.006907" style="fill: #228833; stroke: #228833"/>
    </g>
   </g>
   <g id="PathCollection_8">
    <defs>
     <path id="mb4c52ed456" d="M 0 3.24037 
C 0.859356 3.24037 1.683631 2.898944 2.291288 2.291288 
C 2.898944 1.683631 3.24037 0.859356 3.24037 0 
C 3.24037 -0.859356 2.898944 -1.683631 2.291288 -2.291288 
C 1.683631 -2.898944 0.859356 -3.24037 0 -3.24037 
C -0.859356 -3.24037 -1.683631 -2.898944 -2.291288 -2.291288 
C -2.898944 -1.683631 -3.24037 -0.859356 -3.24037 0 
C -3.24037 0.859356 -2.898944 1.683631 -2.291288 2.291288 
C -1.683631 2.898944 -0.859356 3.24037 0 3.24037 
z
" style="stroke: #ee6677"/>
    </defs>
    <g clip-path="url(#pa7ab092f9b)">
     <use xlink:href="#mb4c52ed456" x="238.411403" y="72.452971" style="fill: #ee6677; stroke: #ee6677"/>
    </g>
   </g>
   <g id="legend_1">
    <g id="text_21">
     <!-- Models -->
     <g transform="translate(787.968506 262.699125) scale(0.1 -0.1)">
      <defs>
       <path id="DejaVuSans-4d" d="M 628 4666 
L 1569 4666 
L 2759 1491 
L 3956 4666 
L 4897 4666 
L 4897 0 
L 4281 0 
L 4281 4097 
L 3078 897 
L 2444 897 
L 1241 4097 
L 1241 0 
L 628 0 
L 628 4666 
z
" transform="scale(0.015625)"/>
      </defs>
      <use xlink:href="#DejaVuSans-4d"/>
      <use xlink:href="#DejaVuSans-6f" transform="translate(86.279297 0)"/>
      <use xlink:href="#DejaVuSans-64" transform="translate(147.460938 0)"/>
      <use xlink:href="#DejaVuSans-65" transform="translate(210.9375 0)"/>
      <use xlink:href="#DejaVuSans-6c" transform="translate(272.460938 0)"/>
      <use xlink:href="#DejaVuSans-73" transform="translate(300.244141 0)"/>
     </g>
    </g>
    <g id="line2d_27">
     <path d="M 751.0896 273.87725 
L 761.0896 273.87725 
L 771.0896 273.87725 
" style="fill: none; stroke: #ee6677; stroke-width: 3; stroke-linecap: square"/>
    </g>
    <g id="text_22">
     <!-- gemini-3.1-pro -->
     <g transform="translate(779.0896 277.37725) scale(0.1 -0.1)">
      <use xlink:href="#DejaVuSans-67"/>
      <use xlink:href="#DejaVuSans-65" transform="translate(63.476562 0)"/>
      <use xlink:href="#DejaVuSans-6d" transform="translate(125 0)"/>
      <use xlink:href="#DejaVuSans-69" transform="translate(222.412109 0)"/>
      <use xlink:href="#DejaVuSans-6e" transform="translate(250.195312 0)"/>
      <use xlink:href="#DejaVuSans-69" transform="translate(313.574219 0)"/>
      <use xlink:href="#DejaVuSans-2d" transform="translate(341.357422 0)"/>
      <use xlink:href="#DejaVuSans-33" transform="translate(377.441406 0)"/>
      <use xlink:href="#DejaVuSans-2e" transform="translate(441.064453 0)"/>
      <use xlink:href="#DejaVuSans-31" transform="translate(472.851562 0)"/>
      <use xlink:href="#DejaVuSans-2d" transform="translate(536.474609 0)"/>
      <use xlink:href="#DejaVuSans-70" transform="translate(572.558594 0)"/>
      <use xlink:href="#DejaVuSans-72" transform="translate(636.035156 0)"/>
      <use xlink:href="#DejaVuSans-6f" transform="translate(674.898438 0)"/>
     </g>
    </g>
    <g id="line2d_28">
     <path d="M 751.0896 288.555375 
L 761.0896 288.555375 
L 771.0896 288.555375 
" style="fill: none; stroke: #228833; stroke-width: 3; stroke-linecap: square"/>
    </g>
    <g id="text_23">
     <!-- gpt-5 -->
     <g transform="translate(779.0896 292.055375) scale(0.1 -0.1)">
      <use xlink:href="#DejaVuSans-67"/>
      <use xlink:href="#DejaVuSans-70" transform="translate(63.476562 0)"/>
      <use xlink:href="#DejaVuSans-74" transform="translate(126.953125 0)"/>
      <use xlink:href="#DejaVuSans-2d" transform="translate(166.162109 0)"/>
      <use xlink:href="#DejaVuSans-35" transform="translate(202.246094 0)"/>
     </g>
    </g>
    <g id="line2d_29">
     <path d="M 751.0896 303.2335 
L 761.0896 303.2335 
L 771.0896 303.2335 
" style="fill: none; stroke: #4477aa; stroke-width: 3; stroke-linecap: square"/>
    </g>
    <g id="text_24">
     <!-- claude-opus-4-7 -->
     <g transform="translate(779.0896 306.7335) scale(0.1 -0.1)">
      <use xlink:href="#DejaVuSans-63"/>
      <use xlink:href="#DejaVuSans-6c" transform="translate(54.980469 0)"/>
      <use xlink:href="#DejaVuSans-61" transform="translate(82.763672 0)"/>
      <use xlink:href="#DejaVuSans-75" transform="translate(144.042969 0)"/>
      <use xlink:href="#DejaVuSans-64" transform="translate(207.421875 0)"/>
      <use xlink:href="#DejaVuSans-65" transform="translate(270.898438 0)"/>
      <use xlink:href="#DejaVuSans-2d" transform="translate(332.421875 0)"/>
      <use xlink:href="#DejaVuSans-6f" transform="translate(370.380859 0)"/>
      <use xlink:href="#DejaVuSans-70" transform="translate(431.5625 0)"/>
      <use xlink:href="#DejaVuSans-75" transform="translate(495.039062 0)"/>
      <use xlink:href="#DejaVuSans-73" transform="translate(558.417969 0)"/>
      <use xlink:href="#DejaVuSans-2d" transform="translate(610.517578 0)"/>
      <use xlink:href="#DejaVuSans-34" transform="translate(646.601562 0)"/>
      <use xlink:href="#DejaVuSans-2d" transform="translate(710.224609 0)"/>
      <use xlink:href="#DejaVuSans-37" transform="translate(746.308594 0)"/>
     </g>
    </g>
    <g id="line2d_30">
     <path d="M 751.0896 317.911625 
L 761.0896 317.911625 
L 771.0896 317.911625 
" style="fill: none; stroke: #ccbb44; stroke-width: 3; stroke-linecap: square"/>
    </g>
    <g id="text_25">
     <!-- gpt-5.4 -->
     <g transform="translate(779.0896 321.411625) scale(0.1 -0.1)">
      <use xlink:href="#DejaVuSans-67"/>
      <use xlink:href="#DejaVuSans-70" transform="translate(63.476562 0)"/>
      <use xlink:href="#DejaVuSans-74" transform="translate(126.953125 0)"/>
      <use xlink:href="#DejaVuSans-2d" transform="translate(166.162109 0)"/>
      <use xlink:href="#DejaVuSans-35" transform="translate(202.246094 0)"/>
      <use xlink:href="#DejaVuSans-2e" transform="translate(265.869141 0)"/>
      <use xlink:href="#DejaVuSans-34" transform="translate(297.65625 0)"/>
     </g>
    </g>
   </g>
  </g>
 </g>
 <defs>
  <clipPath id="pa7ab092f9b">
   <rect x="110.88" y="59.04" width="624.96" height="460.512"/>
  </clipPath>
 </defs>
</svg>
